<svg viewBox="0 0 2000 2000" xmlns="http://www.w3.org/2000/svg" xmlns:serif="http://www.serif.com/" fill-rule="evenodd" clip-rule="evenodd" stroke-linejoin="round" stroke-miterlimit="2"><path fill="none" d="M0 0H2000V2000H0z"/><g serif:id="Artboard1"><path d="M729.636 1107.333c-1.152 1.589-1.311 1.425-2.454 3.002-.735 1.014-.487 1.094-.565 1.162-.232.203-.46-.233-3.33 1.943-10.612 8.044-10.659 7.97-12.51 9.623-4.155 3.711-4.328 3.438-8.714 6.881-10.391 8.157-11.721 6.246-20.032 13.573-9.49 8.367-10.817 6.666-13.061 9.385-.351.425-.369 1.044-.628 1.53-3.373 6.333-7.314 14.024 4.217 28.04 8.824 10.726 16.932 14.278 18.69 15.048 19.238 8.429 29.503-3.151 37.45-7.19 1.815-1.319 21.659-17.981 31.432-24.719 8.449-5.825 8.146-6.194 16.466-12.209 7.091-5.127 7.802-3.986 13.69-8.55 2.117-1.641 3.584-1.206 3.877-1.305 1.275-.054 1.204-.313 2.459-.366 1.984-.084 1.93.197 2.097.174.432-.06.716-.567 1.148-.627.403.113.608.633 1.012.746.704.197 1.461.072 2.187.15 3.674.396 9.766 2.428 10.96 2.888 17.931 6.908 18.594 5.013 26.749 9.041 4.494 2.22 4.424 2.282 8.937 4.428 15.264 6.317 14.602 7.537 29.244 15.233.592.311 18.735 12.833 19.832 13.738 4.326 3.571 4.214 3.633 8.56 7.188 19.481 15.938 21.855 20.92 27.611 25.849.884.757 22.814 25.551 35.223 49.49 3.326 6.416 10.538 17.675 13.43 24.515 3.593 8.501 6.427 13.536 9.771 24.289 3.569 11.476 4.78 11.039 7.994 22.626 6.631 23.907 14.376 45.646 12.988 76.054-.04.875-.309 6.778 1.024 10.899.452 1.396.459 1.452.58 1.431 1.258-.216.167-1.559 1.417-1.773l1.971-2.048c1.759-12.159.893-12.205 2.061-24.465.659-6.91 4.018-20.642 4.453-22.418.432 1.017 1.844 1.391 2.276 2.408.131.308-.469.306-.399 8.94.054 6.749 1.086 6.652 1.078 13.398-.002 1.492-.042 2.985-.031 4.477.037 4.793 1.702 18.351 2.459 20.081.357.816.913 1.536 1.265 2.354 1.324 3.072.248 3.347 11.174 40.288 5.657 19.123 3.456 21.311 9.052 33.65 7.998 17.634 7.604 17.793 8.352 19.3 7.01 14.114 8.994 22.112 14.216 29.839 4.902 7.254 6.137 14.311 12.644 23.622 4.108 5.878 3.152 6.43 7.245 12.278 17.979 25.687 17.524 29.447 31.882 44.306 13.072 13.529 12.942 17.257 19.614 22.877 10.391 8.753 9.526 9.605 18.838 19.093 6.141 6.258 6.965 5.24 13.566 11.027 10.785 9.455 13.308 10.119 17.438 13.847 8.833 7.974 9.359 7.308 18.315 15.152 5.42 4.747 6.825 2.601 17.78 11.095 7.232 5.607 12.608 6.47 17.292 9.826 4.115 2.948 4.148 2.82 8.622 5.157 14.638 7.648 14.085 8.703 29.353 15.062 5.378 2.24 4.596 3.851 11.446 5.898 11.226 3.355 11.112 3.54 22.002 7.873 8.823 3.511 8.959 3.035 35.856 10.806 16.338 4.721 23.84 5.255 29.106 6.546 13.714 3.36 13.841 2.341 24.669 3.753 26 3.392 32.36 2.762 33.449 2.81 14.562.652 14.529.856 29.055.296 26.91-1.037 26.788-2.197 53.661-4.391 8.064-.658 21.835-5.392 40.22-9.129 10.601-2.155 18.325-5.599 22.411-6.491 11.846-2.589 11.302-4.055 22.393-8.936 1.611-.709 16.173-7.116 20.234-8.638 13.242-4.962 12.672-6.062 24.529-13.712 8.113-5.234 12.191-5.811 20.033-11.325 22.646-15.925 22.902-16.144 24.752-17.727 7.239-6.194 7.091-6.311 14.409-12.425 9.745-8.142 8.253-9.693 18.021-17.765 6.72-5.552 5.307-6.879 11.672-12.878 6.309-5.947 16.054-17.861 17.01-18.872 11.797-12.476 12.142-18.844 19.666-27.277 3.112-3.488 2.843-3.643 5.247-7.669 7.918-13.263 6.51-14.054 10.588-19.14 4.624-5.768 3.613-7.377 6.911-13.334 4.88-8.814 4.678-8.876 8.878-18.021 3.569-7.772 2.601-8.14 6.206-15.882 3.597-7.726 2.712-8.035 5.905-15.965.317-.788 6.299-19.163 8.534-26.906 2.764-9.575 1.906-9.725 3.893-17.42 2.039-7.899 1.614-7.959 3.25-15.949 2.694-13.159 1.072-13.356 3.258-26.605.788-4.774 1.576-9.556 1.227-60.471-.012-1.776-1.508-23.963-2.079-26.816-4.289-21.457-4.191-36.952-7.235-49.075-4.011-15.972-4.516-15.78-6.749-22.167-5.732-16.396-6.982-20.981-7.488-22.836-2.529-9.275-3.02-9.056-6.92-17.899-2.131-4.831-2.216-4.765-5.463-8.919.731-1.7 3.821-10.447 12.639-23.715.536-.806 9.529-11.712 11.141-13.096 10.021-8.599 15.266-11.719 16.703-12.574.75-.446 7.445-4.429 9.559-5.245.807-.312 1.736-.206 2.543-.518-.001.331-1.132 1.261-.009 3.507.968 1.936 7.911 10.444 8.631 11.327 4.308 5.279 13.668 21.067 15.478 24.749 4.628 9.414 6.401 8.352 13.603 22.258 6.016 11.616 6.814 11.207 10.981 22.469 1.774 4.795 11.477 19.006 21.538 49.449 3.113 9.419 4.139 8.995 7.474 19.86 3.427 11.162 3.383 11.14 6.215 22.486.88 3.526 1.608 3.974 4.131 15.718 2.393 11.139 2.932 10.988 4.854 22.24.83 4.857 19.245 81.729 7.995 163.222-3.548 25.697-2.918 25.788-8.488 51.109-2.748 12.493-10.549 39.521-11.535 42.939-1.929 6.684-10.246 26.621-11.926 31.121-.005.013-11.441 27.221-16.604 35.235-2.384 3.7-11.962 21.719-20.02 33.568-4.896 7.2-4.606 7.344-9.821 14.361-1.146 1.542-8.106 12.706-25.878 32.505-17.935 19.981-30.59 31.003-33.445 33.489-15.611 13.596-16.507 14.918-24.381 20.3-4.277 2.924-14.019 11.574-22.064 16.074-8.34 4.666-22.199 15.65-37.986 22.452-14.238 6.135-24.098 13.972-72.008 29.933-99.95 33.298-208.201 20.853-223.007 18.232-17.904-3.169-31.308-.727-100.911-23.148-9.144-2.945-9.024-3.125-17.857-6.908-7.218-3.092-13.51-4.504-26.844-11.23-9.246-4.664-16.779-6.291-31.71-14.997-6.852-3.995-16.036-8.882-17.444-9.631-2.874-1.529-17.313-10.829-19.314-12.385-8.828-6.862-9.697-5.501-24.343-15.948-3.458-2.467-17.143-13.234-21.268-16.326-14.255-10.685-14.621-13.252-25.089-21.822-13.835-11.326-14.051-14.549-20.228-20.121-7.477-6.744-6.993-7.154-22.387-24.697-11.077-12.624-10.229-13.258-19.607-25.073-3.663-4.615-4.446-7.614-11.658-17.541-6.602-9.087-5.566-9.692-11.666-19.082-1.494-2.299-13.735-23.617-16.567-30.729-5.927-14.884-7.469-14.2-12.821-29.278-4.287-12.078-7.764-18.286-14.403-42.137-2.383-8.56-3.432-8.295-8.069-33.752-4.66-25.585-6.901-25.3-7.629-51.269-.249-8.892-.067-8.862-.248-17.788-.032-1.569-.041-1.535-.666-2.973-.941-2.167-.277-3.1-2.633-3.319-.457-.042-.325.874-.608 1.236-.283.361-.856.47-1.055.884-2.089 4.351.55 25.565-5.07 46.55-3.298 12.317-3.476 12.232-6.392 24.661-.898 3.828-20.711 73.204-67.25 143.132-20.268 30.454-29.479 38.006-33.834 44.522-1.197 1.791-2.659 3.979-17.953 20.063-5.099 5.362-6.865 8.213-16.453 16.96-9.058 8.264-11.08 11.954-22.09 20.284-10.928 8.269-9.894 9.521-21.196 17.28-1.264.868-1.181.945-15.475 11.299-.81.587-.668.755-9.992 7.526-6.895 5.007-18.932 11.415-26.355 16.338-12.752 8.458-50.434 27.725-65.107 32.977-7.892 2.825-58.012 26.612-143.002 35.361-49.487 5.094-82.624.53-107.151-2.201-10.175-1.133-47.219-8.267-49.126-8.798-15.685-4.367-15.98-3.219-31.411-8.461-4.497-1.528-42.924-14.582-55.784-20.326-6.936-3.098-34.573-16.604-42.881-21.56-23.633-14.096-28.252-16.696-37.414-23.303-33.688-24.295-40.707-33.042-47.231-37.569-5.908-4.1-12.193-12.084-22.879-21.768-7.171-6.498-8.28-9.892-20.42-22.138-7.31-7.374-6.072-8.381-12.951-16.129-8.204-9.241-14.411-20.024-22.459-31.292-4.381-6.134-15.692-26.321-16.334-27.672-4.082-8.59-4.347-8.424-8.71-16.892-6.641-11.751-5.992-12.046-19.306-42.893-.763-1.768-3.502-8.113-8.341-22.576-2.255-6.74-1.738-6.857-4.006-13.555-8.369-24.71-11.213-42.879-11.808-46.685-.803-5.131-7.346-30.368-10.026-78.13-.871-15.523-2.018-31.114 1.42-75.988.403-5.258 6.837-56.368 14.638-82.881 8.285-28.16 7.759-28.296 17.584-55.991 2.111-5.951 18.841-45.644 24.812-55.883.604-1.036.456-1.065 7.147-13.18 1.499-2.714 1.918-2.396 3.438-5.076 2.634-4.646 6.904-14.991 12.947-23.477 4.676-6.566 3.803-7.112 8.9-13.366 6.106-7.493 4.569-8.558 10.748-15.975 11.212-13.459 19.04-26.695 43.751-52.3 8.727-9.043 15.652-15.853 31.863-30.748 4.276-3.928 16.943-13.774 18.442-14.939 3.198-2.485 3.33-2.275 6.342-4.954 6.798-6.046 7.443-5.115 19.755-13.921 1.587-1.135 10.039-6.226 13.506-8.777 3.159-2.325 3.044-2.489 28.906-16.092 16.962-8.922 23.116-11.176 25.212-11.944 10.994-4.028 10.688-4.77 21.928-7.999 23.383-6.718 31.47-12.315 80.588-17.621 21.701-2.344 72.237-2.746 113.896 9.664 19.326 5.757 19.444 5.366 37.918 13.454 6.465 2.831 11.579 3.861 19.885 9.163 6.189 3.95 13.683 5.898 20.284 10.863 6.378 4.798 9.123 5.071 17.613 11.522 16.424 12.478 16.64 12.171 31.72 26.212 11.083 10.318 11.854 9.569 21.049 21.61 3.562 4.665 11.651 11.738 21.247 25.406 9.009 12.831 14.344 18.998 16.091 22.052 2.561 4.479 2.753 4.3 4.663 6.056z" fill="#bb1625"/><path d="M999.429 211.761c3.094-9.641 4.74-8.8 15.5-26.925 4.924-8.294 5.555-7.826 11.153-15.695 7.595-10.675 22.453-26.622 29.477-33.228 6.908-6.496 6.666-6.72 13.882-12.845 4.358-3.699 4.384-4.39 13.35-11.174 58.839-44.522 113.183-52.864 131.32-56.993 21.109-4.806 73.496-7.663 107.59-.456 31.217 6.599 31.097 7.063 46.56 12.673 3.525 1.279 23.219 8.426 42.284 20.239 4.586 2.842 8.382 4.041 20.189 13.173 8.178 6.325 8.552 5.798 16.173 12.758 8.221 7.509 8.268 7.381 16.712 14.696 2.454 2.126 3.659 4.99 15.327 18.218 11.593 13.142 10.424 14.002 19.889 27.16 9.726 13.521 17.835 33.368 19.078 36.413 4.385 10.734 5.877 10.199 15.279 42.525 1.115 3.834 5.142 17.68 9.408 49.011 6.275 46.086-.905 87.807-4.02 107.301-7.303 45.7-31.017 94.533-34.793 102.31-5.679 11.695-5.358 11.825-11.87 23.12-1.085 1.882-12.497 24.909-35.262 56.318-13.482 18.601-13.175 18.794-23.775 32.478-13.61 17.569-13.145 17.91-27.812 34.562-7.502 8.517-6.706 9.191-24.032 27.526-7.072 7.484-6.961 7.519-14.212 14.803-4.001 4.019-9.816 11.652-21.564 23.106-13.625 13.284-13.095 13.77-27.26 26.436-1.132 1.012-.893 1.243-13.536 13.298-5.721 5.455-6.082 5.028-11.53 10.748-10.164 10.673-11.268 9.445-23.369 21.341-3.204 3.15-40.419 35.233-40.513 35.305-13.519 10.391-31.462 26.225-35.614 29.047-9.292 6.318-8.694 7.026-17.566 13.936-10.749 8.372-10.714 8.369-21.262 17.003-6.78 5.55-7.353 4.758-13.999 10.456-11.984 10.274-12.314 9.84-45.444 34.797-7.081 5.334-11.596 7.344-23.554 16.979-2.972 2.394-7.005 5.079-11.406 8.652-7.993 6.488-11.387 5.999-11.834 8.546-.668 3.808 2.511 4.375 6.823 7.388 11.707 8.181 11.452 8.502 18.31 12.778 5.178 3.229 5.955 5.073 20.057 13.494 1.448.864 1.226 1.138 17.298 12.041 20.785 14.1 20.641 14.285 22.449 15.507 5.56 3.758 5.868 3.259 13.269 9.038 5.264 4.111 5.654 3.475 22.587 15.39.84.591 10.885 6.607 20.086 13.406 2.876 2.126 3.207 1.598 36.901 25.237 9.619 6.748 9.14 7.428 17.254 12.012 7.877 4.451 7.183 5.464 15.003 10.05.725.425 5.879 3.978 7.075 4.119.826.098 1.656-.349 2.481-.251 9.06 13.15 13.454 11.36 24.294 20.033 12.643 10.115 12.854 9.778 26.595 18.371 2.172 1.358 2.32 1.054 4.375 2.545.309.224.416.663.725.887 10.228 21.148-7.34 32.962-8.79 34.284-.468.427-4.497 5.834-18.489 9.787-10.448 2.952-17.721.39-27.113-4.909-9.738-5.495-8.63-6.99-17.867-13.549-9.685-6.878-16.608-12.101-18.034-13.177-1.052-.793-5.138-3.074-8.346-5.279-1.53-1.052-1.669-.762-3.168-1.919-1.184-.915-.928-1.116-2.111-2.095-.541-.448-.642-.183-1.224-.663-.404-.311-.567-.871-.971-1.182-.816-.629-1.268.108-10.9-6.848-1.25-.902-15.298-10.326-21.388-14.768-1.445-1.054-1.735-.591-18.467-12.6-2.82-2.024-3.331-1.22-36.048-24.15-4.192-2.938-4.184-2.866-20.08-13.406-1.737-1.152-1.584-1.3-21.485-14.742-20.563-13.89-20.382-14.091-40.875-28.072-10.494-7.159-10.494-7.15-10.737-7.339-6.751-5.249-20.284-13.328-35.693-24.694-8.03-5.923-10.146-8.569-17.277-3.007-10.47 8.166-33.605 22.63-40.879 28.235-8.583 6.613-9.437 5.329-26.802 17.916-11.118 8.059-11.54 7.383-24.243 16.161-7.142 4.935-18.51 12.365-20.131 13.424-5.987 3.913-6.137 3.606-20.151 13.311-21.175 14.664-21.943 13.488-42.407 29.071-7.994 6.087-8.793 5.025-11.358 6.443-.505.279-.749.916-1.254 1.195-.693.705-2.029.472-2.722 1.177-.099.101.196.122-.168 1.764-.207.932-.409.837-.612 1.753-.293.099-1.76-.337-3.877 1.305-5.887 4.565-6.599 3.423-13.69 8.55-8.32 6.016-8.018 6.384-16.466 12.209-9.773 6.738-29.617 23.4-31.432 24.719-7.947 4.039-18.212 15.618-37.45 7.19-1.758-.77-9.866-4.322-18.69-15.048-11.531-14.016-7.59-21.707-4.217-28.04.259-.487.277-1.105.628-1.53 2.244-2.719 3.571-1.017 13.061-9.385 8.311-7.327 9.641-5.416 20.032-13.573 4.386-3.443 4.559-3.17 8.714-6.881 1.851-1.653 1.898-1.579 12.51-9.623 2.87-2.175 3.097-1.74 3.33-1.943.078-.068-.17-.148.565-1.162 1.143-1.577 1.302-1.413 2.454-3.002.932.061 2 1.53 4.661-.459 18.818-14.068 39.132-26.125 46.737-31.774 8.951-6.649 29.638-19.298 37.399-25.394 7.545-5.927 8.111-5.044 18.655-12.29 3.032-2.083 7.266-4.292 14.939-9.967 9.673-7.155 21.402-13.433 31.004-20.518 10.281-7.586 10.94-6.559 21.207-14.165 2.084-1.544 19.673-13.574 21.388-14.747 5.042-3.449 9.188-4.191 9.608-6.086.071-.32.576-2.6-.903-3.992-.973-.916-2.912-.553-13.478-8.786-17.665-13.764-28.948-21.171-47.78-35.331-8.184-6.154-8.594-5.572-14.075-10.31-4.151-3.588-54.309-42.005-62.195-49.559-7.614-7.293-15.41-11.002-27.142-22-3.424-3.21-4.137-2.38-44.466-38.271-18.573-16.529-29.974-27.622-38.174-35.53-5.061-4.881-6.474-5.571-8.207-7.421-11.668-12.451-21.112-20.255-36.633-37.12-6.864-7.458-12.834-12.297-36.583-39.515-17.687-20.271-17.989-19.98-34.438-41.303-7.792-10.101-7.91-9.953-15.515-20.197-8.42-11.342-9.772-13.294-10.589-14.473-1.457-2.103-2.971-3.1-8.348-11.604-4.956-7.839-5.386-7.528-10.553-16.034-4.198-6.911-4.137-6.897-8.613-13.629-2.428-3.652-5.872-12.276-11.178-20.113-4.948-7.309-4.118-7.761-8.789-15.686-3.178-5.392-16.532-36.802-18.53-42.069-7.909-20.855-8.534-20.645-14.114-42.266-3.993-15.473-4.427-15.352-7.138-31.282-.985-5.789-15.347-62.716.907-138.76 7.332-34.303 20.643-65.218 27.836-77.672 1.678-2.905 5.997-12.149 12.987-22.572 3.485-5.196 2.981-5.52 11.749-17.394 1.949-2.639 11.083-15.009 27.069-30.802 4.434-4.38 20.001-18.407 26.023-22.96 7.381-5.582 18.372-12.402 20.01-13.418 26.433-16.402 37.089-19.756 55.756-26.742 11.602-4.342 46.372-12.218 62.353-13.492 54.922-4.379 79.874 3.338 109.521 10.273 4.592 1.074 37.21 11.737 53.27 20.946 32.615 18.701 32.379 19.077 50.038 32.185 8.646 6.418 8.257 6.855 21.311 19.15 5.75 5.416 5.99 5.127 11.103 11.127 5.029 5.9 5.613 5.361 9.44 10.752 1.669 2.351 6.359 6.97 8.18 9.485 13.114 18.119 17.356 26.095 18.635 28.501 1.522 2.862 3.003 3.546 8.571 15.881 1.473 3.263 1.134 3.35 1.3 3.609.263.412.899.482 1.162.893.422.241.133 1.107.555 1.348.218.125 2.975-.052 3.077-.181l.783-3.835zM845.665 821.763l-3.864-2.897c-6.233-5.372-5.89-5.71-15.611-13.494-7.711-6.175-18.227-15.897-23.815-20.57-10.994-9.193-10.601-9.6-21.478-18.93-14.477-12.419-13.814-13.09-28.359-25.349-2.737-2.307-7.213-8.144-9.865-10.137-6.866-5.16-6.319-5.73-11.642-10.666-6.432-5.963-5.729-6.653-12.439-12.286-6.012-5.046-19.493-19.739-21.092-21.237-15.579-14.595-14.14-15.93-22.681-24.274-13.582-13.27-12.598-14.134-25.328-28.249-12.767-14.157-11.339-15.332-24.405-29.26-4.092-4.362-9.547-14.211-18.071-24.321-5.79-6.867-5.027-7.371-9.895-14.895-19.186-29.652-19.625-29.335-21.069-32.042-1.617-3.03-16.703-31.306-20.023-37.98-3.946-7.933-18.583-44.653-19.086-46.346-11.601-39.055-12.487-52.722-12.646-53.779-2.868-19.156-6.541-42.582-2.523-75.832 4.204-34.792 11.621-53.333 13.24-58.09 4.049-11.899 4.003-11.898 15.36-35.87.497-1.049 9.541-15.83 13.042-20.397 15.998-20.868 15.714-21.195 35.319-38.677 13.657-12.178 30.107-21.126 36.066-24.566 15.106-8.722 40.343-15.748 45.315-16.746 29.292-5.88 31.603-5.285 37.927-5.606 7.405-.376 45.184-2.294 91.465 14.969 37.722 14.07 60.741 35.554 64.22 38.376 3.308 2.682 26.171 23.75 35.1 38.839 7.541 12.743 7.661 12.662 8.239 13.811 30.451 60.546 11.394 90.231 7.379 100.907-.951 2.528-6.332 16.833-5.907 33.245.061 2.35.395 15.263 5.792 28.803 10.187 25.557 31.411 34.999 33.558 40.14 3.3 7.901-7.357 40.931 15.1 60.521 17.017 14.844 43.546 9.566 54.264-6.079 10.614-15.493 8.864-32.581 8.831-38.475-.085-15.224-1.29-16.636 6.236-22.1 2.238-1.625 14.08-10.223 23.382-25.455 1.888-3.092 12.097-19.811 10.281-44.099-1.972-26.369-14.309-35.476-15.988-58.082-1.927-25.938 6.755-45.867 7.097-46.804 1.227-3.363 9.497-26.039 20.494-39.777 16.68-20.839 16.42-21.195 42.091-42.608 15.408-12.853 45.571-27.004 49.215-28.454 55.656-22.148 101.991-19.985 133.547-13.786 5.504 1.081 36.13 7.096 65.264 25.631 20.878 13.282 35.045 24.099 58.984 57.18 10.373 14.334 15.089 26.089 16.064 28.52 4.315 10.756 19.32 38.001 22.82 91.396.529 8.074 3.227 49.217-11.135 100.53-7.357 26.287-21.498 55.809-22.497 58.017-3.257 7.196-23.801 45.751-36.658 63.501-9.081 12.538-8.612 12.802-17.583 25.401-5.063 7.111-5.349 6.846-10.629 13.796-9.718 12.792-10.091 12.469-10.913 13.596-9.216 12.64-35.106 42.641-39.866 47.292-6.005 5.867-9.5 10.837-25.98 27.682-8.171 8.352-8.356 8.085-9.053 8.818-7.094 7.457-7.278 7.221-14.554 14.48-13.532 13.499-13.832 13.112-27.337 26.284-7.386 7.204-7.579 6.927-15.065 14.001-16.457 15.551-44.589 39.004-49.883 43.935-8.759 8.158-11.621 9.747-14.553 12.365-11.981 10.698-12.267 10.351-13.304 11.285-5.35 4.815-5.696 4.321-11.165 8.98-4.785 4.077-4.694 4.129-9.736 7.932-5.17 3.899-27.001 21.762-27.166 21.876-7.357 5.092-7.109 5.343-14.166 10.854-14.956 11.679-14.904 11.73-16.243 12.693-8.341 6.002-7.903 6.529-16.322 12.439-6.19 4.345-21.316 15.595-25.741 19.31-3.292 2.764-26.924 19.332-27.286 19.576-11.575 7.812-13.598 11.081-18.3 9.843-2.157-.568-22.382-14.593-24.572-16.326-7.748-6.129-14.179-9.826-17.118-12.155-12.462-9.877-12.748-9.416-25.314-19.168-18.549-14.394-18.612-14.281-20.181-15.585-9.224-7.663-9.781-6.901-17.736-13.589-4.069-3.422-20.94-16.049-22.63-17.598-8.411-7.709-8.472-7.602-17.217-14.188z" fill="#344415"/><path d="M1755.152 1081.124c-1.421 8.605-2.404 8.26-6.606 15.902-6.52 11.858-18.804 22.293-20.735 23.933-18.19 15.452-50.516 24.312-57.474 25.934-12.637 2.948-12.641 2.84-13.732 3.123-5.52 1.431-5.557 1.124-11.157 2.272-.797.163-3.186 1.161-6.47 1.475-6.813.652-6.622 1.634-13.438 2.312-7.869.783-7.715 1.62-13.408 1.911-5.614.287-5.805-.536-9.365 1.277-1.59.81-1.088 1.401.252 2.556 1.433 1.235 6.315 1.472 6.877 1.499 9.003.437 8.888 1.248 17.884 2.159 4.514.457 7.398 1.651 9.022 1.903 5.475.849 5.434.796 10.824 1.899 2.883.59 22.567 4.62 35.724 8.774 39.885 12.592 55.317 29.74 66.065 47.897 2.806 4.74 14.375 24.286 21.671 65.355 1.496 8.421 4.737 29.022 4.739 29.046.591 6.775.9 6.703 1.878 13.443.232 1.602-.351 1.635 2.325 20.102.719 4.964 1.501 36.329 2.722 37.363.353.299.925-.043 1.388-.042.459.001 1.029.347 1.377.047 1.35-1.161.15-10.208 1.22-21.594 1.259-13.398.001-13.537 1.704-20.244 1.553-6.118 1.181-8.505 1.434-13.449.22-4.294 1.554-6.515 2.134-13.392.471-5.578.394-5.549 1.578-10.994 1.223-5.625.057-5.795 1.554-11.337 2.244-8.307 3.842-29.404 15.321-58.244 3.248 4.154 3.332 4.087 5.463 8.919 3.9 8.842 4.391 8.623 6.92 17.899.506 1.855 1.756 6.44 7.488 22.836 2.233 6.387 2.739 6.195 6.749 22.167 3.044 12.123 2.946 27.618 7.235 49.075.57 2.853 2.066 25.04 2.079 26.816.35 50.915-.439 55.697-1.227 60.471-2.185 13.248-.564 13.445-3.258 26.605-1.635 7.99-1.21 8.05-3.25 15.949-1.987 7.695-1.129 7.845-3.893 17.42-2.235 7.743-8.217 26.118-8.534 26.906-3.193 7.93-2.308 8.239-5.905 15.965-3.605 7.742-2.637 8.111-6.206 15.882-4.199 9.145-3.998 9.207-8.878 18.021-3.298 5.957-2.288 7.566-6.911 13.334-4.077 5.086-2.669 5.877-10.588 19.14-2.404 4.026-2.135 4.181-5.247 7.669-7.524 8.433-7.868 14.801-19.666 27.277-.956 1.011-10.701 12.925-17.01 18.872-6.365 6-4.952 7.326-11.672 12.878-9.769 8.071-8.276 9.623-18.021 17.765-7.318 6.114-7.17 6.231-14.409 12.425-1.851 1.583-2.107 1.802-24.752 17.727-7.841 5.514-11.92 6.091-20.033 11.325-11.857 7.649-11.288 8.75-24.529 13.712-4.061 1.522-18.623 7.929-20.234 8.638-11.092 4.88-10.547 6.346-22.393 8.936-4.086.893-11.81 4.336-22.411 6.491-18.384 3.738-32.156 8.471-40.22 9.129-26.872 2.194-26.751 3.353-53.661 4.391-14.526.56-14.493.355-29.055-.296-1.09-.049-7.449.581-33.449-2.81-10.828-1.413-10.955-.393-24.669-3.753-5.267-1.29-12.768-1.825-29.106-6.546-26.896-7.772-27.033-7.295-35.856-10.806-10.89-4.333-10.776-4.517-22.002-7.873-6.85-2.047-6.069-3.658-11.446-5.898-15.268-6.359-14.715-7.414-29.353-15.062-4.474-2.337-4.507-2.209-8.622-5.157-4.684-3.356-10.06-4.218-17.292-9.826-10.955-8.494-12.36-6.348-17.78-11.095-8.956-7.844-9.482-7.178-18.315-15.152-4.131-3.729-6.654-4.393-17.438-13.847-6.601-5.787-7.424-4.769-13.566-11.027-9.312-9.488-8.447-10.341-18.838-19.093-6.672-5.62-6.542-9.349-19.614-22.877-14.358-14.859-13.902-18.619-31.882-44.306-4.094-5.849-3.138-6.4-7.245-12.278-6.506-9.311-7.742-16.368-12.644-23.622-5.222-7.728-7.206-15.725-14.216-29.839-.748-1.507-.354-1.666-8.352-19.3-5.596-12.339-3.395-14.526-9.052-33.65-10.927-36.941-9.851-37.217-11.174-40.288-.353-.818-.908-1.538-1.265-2.354-.757-1.73-2.422-15.288-2.459-20.081-.011-1.492.029-2.985.031-4.477.008-6.746-1.023-6.649-1.078-13.398-.07-8.634.53-8.632.399-8.94-.432-1.017-1.844-1.391-2.276-2.408 10.195-34.745 12.102-34.052 20.429-55.836 5.071-13.266 25.608-46.924 30.154-52.851 9.379-12.226 10.817-13.714 11.872-14.805 6.224-6.438 8.118-10.382 15.898-17.67 12.675-11.874 11.957-12.642 25.653-23.292 13.985-10.874 14.075-10.719 15.278-11.678 7.558-6.025 18.484-11.876 20.279-13.07 9.326-6.201 13.542-6.768 20.138-11.154 13.598-9.043 32.292-12.082 32.549-12.562.216-.403-.947-.614-.865-1.064.187-1.022 1.366-1.681 1.553-2.703.581.481.682.216 1.224.663 1.183.978.927 1.18 2.111 2.095 1.498 1.157 1.638.868 3.168 1.919 3.207 2.205 7.294 4.485 8.346 5.279 1.426 1.076 8.349 6.299 18.034 13.177 9.236 6.56 8.129 8.055 17.867 13.549 9.392 5.299 16.665 7.861 27.113 4.909 13.993-3.954 18.021-9.36 18.489-9.787 1.45-1.322 19.017-13.136 8.79-34.284-.309-.224-.416-.663-.725-.887-2.055-1.491-2.203-1.187-4.375-2.545-13.74-8.593-13.952-8.256-26.595-18.371-10.84-8.673-15.235-6.883-24.294-20.033 1.359-1.016 1.507-.759 2.687-2.009.869-.921 7.93-9.529 21.39-23.291 1.686-1.724 7.176-7.337 22.22-20.362 13.442-11.638 20.117-13.952 38.102-26.794 1.532-1.094 17.571-10.174 24.83-13.245 13.477-5.702 12.841-7.14 26.763-11.491 10.297-3.218 18.015-7.54 33.672-10.83 6.79-1.427 71.497-21.031 154.098-3.079 19.499 4.238 21.209 4.215 35.641 8.936 13.869 4.536 14.385 2.992 27.597 9.189 15.474 7.258 16.241 5.448 31.334 13.436 8.896 4.708 9.185 4.115 17.764 9.332 5.807 3.532 15.372 8.415 21.564 12.44 2.995 1.947 8.713 5.398 9.476 5.858 2.082 1.257 14.539 10.052 15.795 10.938.518.366 1.095.649 1.593 1.043.328.259.506.701.872.902.547.301 1.241.26 1.788.561z" fill="#c6192a"/><path d="M1755.152 1081.124c.347-.356 1.014-.253 1.361-.609.567-.582 9.391-19.646 15.196-54.927 1.108-6.735 1.261-6.665 2.232-13.455.519-3.631 1.719-9.134 1.904-11.239.885-10.106 1.737-9.96 2.426-20.104.762-11.235 1.938-11.08 2.307-22.375.059-1.796.227-1.777 1.206-22.424.023-.491.26-5.48.919-6.069.034-.031 2.827-.039 2.86-.009 1.681 1.529-.353 2.11 1.732 28.353.659 8.297-.143 8.354 1.142 13.549 2.431 9.83.414 10.118 2.571 20.035 1.109 5.097 1.144 11.765 1.513 13.554.932 4.512 1.319 4.411 1.85 11.151.018.232 5.416 32.551 11.846 51.412 16.124 47.294 40.506 68.593 109.64 83.289 4.519.961 4.547.56 9.022 1.76 5.679 1.523 6.395.551 11.267 1.916 6.531 1.831 6.668.919 11.267 1.729 6.56 1.157 6.512 1.28 13.183 1.391 1.614.027 1.613-.073 3.055.61 1.974.937 2.655 1.229 1.51 3.068-.319.512-1.134.417-1.678.679-4.584 2.213-5.002.077-16.082 2.046-6.711 1.193-6.78.653-13.395 2.213-5.562 1.312-5.633.789-11.229 2.062-13.83 3.146-28.764 4.794-55.776 15.718-2.188.885-2.126.963-3.954 2.413-.807.312-1.736.206-2.543.518-2.114.816-8.809 4.799-9.559 5.245-1.437.855-6.682 3.975-16.703 12.574-1.613 1.384-10.605 12.29-11.141 13.096-8.818 13.268-11.908 22.015-12.639 23.715-11.479 28.84-13.077 49.938-15.321 58.244-1.497 5.542-.331 5.712-1.554 11.337-1.184 5.445-1.107 5.416-1.578 10.994-.58 6.877-1.914 9.098-2.134 13.392-.254 4.945.119 7.332-1.434 13.449-1.702 6.707-.445 6.846-1.704 20.244-1.07 11.386.13 20.433-1.22 21.594-.348.299-.918-.047-1.377-.047-.463-.001-1.035.342-1.388.042-1.221-1.034-2.003-32.399-2.722-37.363-2.676-18.467-2.093-18.5-2.325-20.102-.978-6.74-1.287-6.668-1.878-13.443-.002-.024-3.243-20.625-4.739-29.046-7.296-41.069-18.865-60.615-21.671-65.355-10.747-18.157-26.18-35.305-66.065-47.897-13.158-4.154-32.841-8.183-35.724-8.774-5.39-1.103-5.349-1.05-10.824-1.899-1.624-.252-4.508-1.446-9.022-1.903-8.996-.911-8.881-1.721-17.884-2.159-.562-.027-5.444-.264-6.877-1.499-1.34-1.155-1.842-1.746-.252-2.556 3.559-1.813 3.751-.99 9.365-1.277 5.693-.291 5.539-1.128 13.408-1.911 6.816-.678 6.625-1.661 13.438-2.312 3.284-.314 5.673-1.311 6.47-1.475 5.6-1.148 5.637-.84 11.157-2.272 1.091-.283 1.094-.175 13.732-3.123 6.958-1.623 39.284-10.482 57.474-25.934 1.931-1.64 14.215-12.075 20.735-23.933 4.202-7.643 5.185-7.297 6.606-15.902z" fill="#fcc40f"/><path d="M347.179 1043.496c13.586-7.103 25.464-9.794 35.932-12.638 28.034-7.616 51.518-2.653 57.565-.265 25.57 10.094 28.949 36.061 8.966 50.329-12.879 9.196-13.314 8.556-40.189 17.625-20.484 6.912-20.19 7.608-39.808 16.724-14.087 6.546-38.083 21.778-40.689 23.772-19.511 14.93-20.889 16.117-22.627 17.614-18.169 15.649-22.571 20.728-24.315 22.74-4.673 5.392-4.903 5.146-9.663 10.496-9.414 10.581-12.395 14.494-13.4 15.813-7.637 10.027-12.125 12.257-31.719 45.918-9.069 15.579-17.891 37.812-34.35 35.212-19.185-3.03-20.648-36.116-14.102-58.252 7.166-24.233 12.712-35.195 24.062-55.063.201-.352 15.08-22.675 20.709-30.115 7.04-9.305 16.045-19.276 16.305-19.619 3.488-4.586 3.508-4.559 27.367-28.483 6.333-6.35 31.726-24.737 32.781-25.415 28.497-18.312 30.364-19.576 47.175-26.393z" fill="#fdfbfc"/><path d="M400.415 764.206l-.336 1.629c-.374.176-.547.654-.921.83-.664.313-1.426.359-2.119.602-2.849 1-5.854.169-9.785.892-5.61 1.033-5.609.841-11.26 1.665-2.056.3-5.496 1.526-8.906 1.957-5.686.719-5.529 1.392-11.202 2.296-5.693.907-5.572 1.308-11.205 2.559-.937.208-17.653 5.213-24.055 8.222-7.821 3.676-35.947 14.547-48.582 57.551-6.833 23.255-6.112 27.326-7.764 33.227-1.819 6.497-.683 7.96-2.038 13.464-2.162 8.781-.454 9.035-2.506 17.814-1.379 5.9-.819 11.346-1.701 17.978-2.18 16.39.812 24.55-1.407 25.883-.347.209-.675-.551-1.08-.558-.49-.009-.936.727-1.378.515-2.218-1.065-1.269-24.293-3.73-39.184-1.336-8.081-4.791-54.175-18.973-85.327-13.448-29.539-36.75-42.317-70.081-50.348-1.591-.383-3.786-1.3-6.362-1.668-5.704-.813-5.514-1.601-11.2-2.339-6.773-.879-6.622-1.636-13.434-2.322-6.226-.626-6.846-1.715-13.429-1.813-5.943-.088-5.94.066-6.442-.212-.395-.219-.279-.869-.521-1.25-.412-.648-1.472-1.046-1.423-1.812.006-.094 4.842-1.597 6.266-1.844 4.93-.852 5.027.3 13.116-1.364 6.664-1.37 6.735-.816 13.386-2.366 4.835-1.126 33.674-5.175 57.655-18.327 10.077-5.527 17.072-13.344 18.327-14.746 6.166-6.891 19.715-21.908 28.155-71.584 4.866-28.641 3.781-28.773 5.014-35.68 2.229-12.495 1.479-38.227 3.789-39.052.444-.159.791.518 1.214.727.539.266 1.317.202 1.665.692 1.364 1.92-1.173 9.216.831 24.279 1.336 10.042.169 10.158 2.205 20.11 1.181 5.772-.288 6.659 1.975 15.694 1.664 6.647.22 6.872 2.012 13.474 1.987 7.318 7.179 56.974 36.665 79.492 20.004 15.277 47.777 20.679 59.579 23.521.625.15 25.124 4.614 26.809 4.726 6.696.446 6.781-.117 13.179 1.997z" fill="#fdc50f"/><path d="M1108.375 1367.065c10.367-28.913 35.475-54.993 44.064-61.288 14.375-10.536 23.708-17.955 53.053-24.497 8.272-1.844 42.443-3.419 48.42 5.969 7.003 11-15.123 22.08-23.637 27.121-4.154 2.459-8.95 7.255-12.173 9.721-15.379 11.771-14.03 13.221-23.231 21.733-1.011.935-4.608 4.263-10.91 13.314-.734 1.054-7.733 11.107-9.02 13.281-11.704 19.781-18.02 38.255-19.209 41.733-14.921 43.641-9.864 55.516-14.658 80.708-2.092 10.994-11.025 21.522-21.002 18.731-7.607-2.129-14.085-8.552-21.067-25.937-3.21-7.991-6.113-28.758-6.27-37.594-.836-47.014 11.848-72.97 15.64-82.996z" fill="#fdfbfc"/><path d="M1462.494 1092.662c2.733-2.254 9.775-8.269 19.858-9.659 11.106-1.532 24.965 5.805 29.019 16.203 5.549 14.235-.742 26.011-3.108 30.754-8.183 16.403-9.315 15.682-12.399 20.626-5.092 8.165-5.676 7.707-11.503 15.407-1.219 1.61-5.136 6.787-17.426 18.263-2.938 2.744-3.042 2.563-5.988 5.248-31.299 28.519-47.114 22.39-49.547 16.691-.629-1.473-2.735-6.406 4.72-19.452 7.299-12.773 6.863-12.975 11.384-22.318 12.146-25.099 18.466-55.84 34.99-71.762z" fill="#fdfafb"/><path d="M1583.524 745.739c-1.995-14.107-.243-19.782-3.559-37.534-4.383-23.461-8.065-49.826-46.394-59.407-21.049-5.261-24.473-3.392-29.123-5.232-1.994-.788-1.841-1.629-.204-3.002.31-.26.48-.736.869-.845.391-.11.784.304 1.189.267.322-.029.538-.419.86-.451 3.316-.323 3.285.11 6.651-.182 2.466-.214 17.86-3.223 22.369-4.713 22.489-7.434 34.899-14.684 42.604-51.7 4.225-20.295 3.816-43.537 4.742-44.44.022-.021 3.373-.032 3.394-.011.796.799-.691 57.522 18.87 79.777 5.364 6.103 12.775 12.791 37.4 18.793 2.132.52 3.22.31 9.108 1.628 6.724 1.505 8.635.081 11.875 1.36 2.559 1.01 2.687.856 2.95 1.388.632 1.277-1.01 1.971-1.184 2.044-.216.091-2.211.934-2.746 1.007-.343.046-.315-.145-4.315.312-4.407.503-4.406.276-8.727 1.122-10.629 2.082-33.251 5.309-46.376 22.405-6.676 8.696-11.111 23.409-14.74 46.299-1.424 8.98-.594 9.011-1.495 18.027-.276 2.764-.119 12.618-.615 13.099-.195.19-.231-.001-3.404-.011z" fill="#fdc50f"/><path d="M128.068 1358.415c.183-.427 2.003-7.853 11.511-15.199 9.591-7.41 18.897-5.602 21.849-4.463 20.874 8.058 25.131 38.701 5.921 61.285-15.337 18.032-32.261 7.572-37.394-1.193-9.122-15.575-5.489-28.996-1.888-40.43z" fill="#fdf9fa"/><path d="M797.668 1138.852l2.201 3.874c-.432.06-.716.567-1.148.627-.167.023-.113-.258-2.097-.174-1.255.053-1.184.312-2.459.366.203-.915.405-.82.612-1.753.364-1.641.068-1.663.168-1.764.693-.705 2.029-.472 2.722-1.177z" fill="#9f7874"/><path d="M999.429 211.761l-.783 3.835c-.102.129-2.859.306-3.077.181-.422-.241-.133-1.107-.555-1.348 1.106-.531 1.219.034 2.331-.5.217-.104.154-.16 2.083-2.168z" fill="#8d957f"/></g></svg>